<svg xmlns="http://www.w3.org/2000/svg" width="29" height="29" viewBox="0 0 29 29">
  <g id="Path_41225" data-name="Path 41225" fill="#f1f1f1">
    <path d="M 14.5 25 C 8.710280418395996 25 4 20.28972053527832 4 14.5 C 4 8.710280418395996 8.710280418395996 4 14.5 4 C 20.28972053527832 4 25 8.710280418395996 25 14.5 C 25 20.28972053527832 20.28972053527832 25 14.5 25 Z" stroke="none"/>
    <path d="M 14.5 8 C 10.9158821105957 8 8 10.9158821105957 8 14.5 C 8 18.0841178894043 10.9158821105957 21 14.5 21 C 18.0841178894043 21 21 18.0841178894043 21 14.5 C 21 10.9158821105957 18.0841178894043 8 14.5 8 M 14.5 0 C 22.50812911987305 0 29 6.491870880126953 29 14.5 C 29 22.50812911987305 22.50812911987305 29 14.5 29 C 6.491870880126953 29 0 22.50812911987305 0 14.5 C 0 6.491870880126953 6.491870880126953 0 14.5 0 Z" stroke="none" fill="#0e5f02"/>
  </g>
</svg>
