<svg xmlns="http://www.w3.org/2000/svg" width="25.389" height="26.871" viewBox="0 0 25.389 26.871">
  <path id="order-svgrepo-com" d="M30.071,27.171a.585.585,0,0,1-.454-.206.566.566,0,0,1-.165-.475l1.3-19.974a.613.613,0,0,1,.619-.578h5.447V5.855A5.093,5.093,0,0,1,38.3,2.265,5.162,5.162,0,0,1,41.895.8a5.086,5.086,0,0,1,5.076,5.076c0,.021-.021.041-.021.062v.021h5.468a.613.613,0,0,1,.619.578l1.279,19.83a.454.454,0,0,1,.021.165.657.657,0,0,1-.64.64Zm.66-1.238H53.037L51.841,7.2H46.95V8.682h.021a1.115,1.115,0,0,1,.516.929,1.156,1.156,0,1,1-2.311,0,1.115,1.115,0,0,1,.516-.929h.021V7.2H38.057V8.682h.021a1.115,1.115,0,0,1,.516.929,1.156,1.156,0,1,1-2.311,0,1.115,1.115,0,0,1,.516-.929h.021V7.2h-4.89ZM41.895,2.059A3.844,3.844,0,0,0,38.057,5.9v.083h7.7l-.021-.041V5.9a3.844,3.844,0,0,0-3.838-3.838Z" transform="translate(-29.198 -0.55)" fill="#0e5f02" stroke="#0e5f02" stroke-width="0.5"/>
</svg>
