<svg xmlns="http://www.w3.org/2000/svg" width="24.683" height="24.683" viewBox="0 0 24.683 24.683">
  <path id="dashboard-svgrepo-com_1_" data-name="dashboard-svgrepo-com (1)" d="M4,5.449A1.449,1.449,0,0,1,5.449,4h5.8a1.449,1.449,0,0,1,1.449,1.449v7.245a1.449,1.449,0,0,1-1.449,1.449h-5.8A1.449,1.449,0,0,1,4,12.693Zm14.489,0A1.449,1.449,0,0,1,19.938,4h5.8a1.449,1.449,0,0,1,1.449,1.449v2.9A1.449,1.449,0,0,1,25.734,9.8h-5.8a1.449,1.449,0,0,1-1.449-1.449ZM4,21.387a1.449,1.449,0,0,1,1.449-1.449h5.8a1.449,1.449,0,0,1,1.449,1.449v4.347a1.449,1.449,0,0,1-1.449,1.449h-5.8A1.449,1.449,0,0,1,4,25.734ZM18.489,17.04a1.449,1.449,0,0,1,1.449-1.449h5.8a1.449,1.449,0,0,1,1.449,1.449v8.693a1.449,1.449,0,0,1-1.449,1.449h-5.8a1.449,1.449,0,0,1-1.449-1.449Z" transform="translate(-3.25 -3.25)" fill="none" stroke="#fff" stroke-width="1.5"/>
</svg>
