<svg xmlns="http://www.w3.org/2000/svg" width="28.5" height="28.5" viewBox="0 0 28.5 28.5">
  <g id="layer1" transform="translate(-301.75 -485.764)">
    <path id="path453753" d="M326,505.764a1,1,0,0,0-.707.293L323.5,507.85l-.793-.793a1,1,0,0,0-1.414,1.414l1.5,1.5a1,1,0,0,0,1.414,0l2.5-2.5a1,1,0,0,0-.707-1.707Z" fill="#0e5f02" stroke="#fff" stroke-width="0.5" fill-rule="evenodd"/>
    <path id="path453745" d="M307,504.014a1,1,0,0,0,0,2h3a1,1,0,0,0,0-2Z" fill="#0e5f02" stroke="#fff" stroke-width="0.5" fill-rule="evenodd"/>
    <path id="path453701" d="M306,486.014a1,1,0,0,0-.857.484l-3,5q-.013.034-.023.068a1.544,1.544,0,0,0-.107.389q-.007.029-.012.059v17a1,1,0,0,0,1,1h15.346A6,6,0,1,0,325,502.1V492.014l-.006-.025a1,1,0,0,0-.066-.342l-.018-.035a.991.991,0,0,0-.053-.113l-3-5a1,1,0,0,0-.857-.484Zm.566,2h4.219l-.584,3h-5.436Zm6.258,0h2.357l.6,3H312.24Zm4.4,0h3.211l1.8,3h-4.408Zm-13.223,5h6v8a1,1,0,0,0,1.707.707L314,499.428l2.293,2.293a1,1,0,0,0,1.707-.707v-8h5V502.1a6.019,6.019,0,0,0-5,5.914H304Zm8,0h4V498.6l-1.293-1.293a1,1,0,0,0-1.414,0L312,498.6Zm12,11a4,4,0,1,1-3.893,4.93,1,1,0,0,0-.053-.26,4.033,4.033,0,0,1-.055-.67,3.985,3.985,0,0,1,4-4Z" fill="#0e5f02" stroke="#fff" stroke-width="0.5" fill-rule="evenodd"/>
  </g>
</svg>
