<svg xmlns="http://www.w3.org/2000/svg" width="29.5" height="29.503" viewBox="0 0 29.5 29.503">
  <g id="farmer-svgrepo-com" transform="translate(-6.828 -1)">
    <path id="Path_30025" data-name="Path 30025" d="M153.238,298.486a.486.486,0,0,0-.1-.081,10.577,10.577,0,0,0-2.79-1.608.476.476,0,0,0-.082-.031,10.508,10.508,0,0,0-3.333-.67.484.484,0,0,0-.786,0,10.511,10.511,0,0,0-3.333.67.489.489,0,0,0-.083.031,10.581,10.581,0,0,0-2.79,1.608.486.486,0,0,0-.1.081,10.56,10.56,0,0,0-3.877,8.177.485.485,0,1,0,.97,0,9.575,9.575,0,0,1,2.774-6.745v6.641a.485.485,0,0,0,.97,0v-7.5a9.624,9.624,0,0,1,1.782-1.091v4.078a.485.485,0,0,0,.485.485h7.192a.485.485,0,0,0,.485-.485v-4.078a9.618,9.618,0,0,1,1.782,1.091v7.5a.485.485,0,0,0,.97,0v-6.641a9.575,9.575,0,0,1,2.774,6.746.485.485,0,0,0,.97,0A10.56,10.56,0,0,0,153.238,298.486Zm-9.811,3.076v-3.987a9.549,9.549,0,0,1,2.626-.505v1.248a.485.485,0,1,0,.97,0v-1.248a9.551,9.551,0,0,1,2.626.505v3.987Z" transform="translate(-120.786 -276.645)" fill="#0e5f02"/>
    <path id="Path_30026" data-name="Path 30026" d="M16.58,9.384v-7.9a.485.485,0,1,0-.97,0V8.9H13.652V1.485a.485.485,0,1,0-.97,0V8.9H10.725V1.485a.485.485,0,1,0-.97,0V8.9H7.8V1.485a.485.485,0,1,0-.97,0v7.9a2.51,2.51,0,0,0,2.507,2.507h1.884V30.018a.485.485,0,1,0,.97,0V11.891h1.884A2.51,2.51,0,0,0,16.58,9.384Zm-8.7.485h7.655a1.54,1.54,0,0,1-1.458,1.052H9.335A1.54,1.54,0,0,1,7.876,9.869Z" fill="#0e5f02"/>
    <path id="Path_30027" data-name="Path 30027" d="M173.881,81.534h2.167c-.017.178-.026.357-.026.536a5.531,5.531,0,1,0,11.061,0c0-.179-.009-.358-.026-.536h2.149a.485.485,0,1,0,0-.97h-2.329l-1.125-4.677a1.687,1.687,0,0,0-2.137-1.229l-2.011.6-2.011-.6a1.709,1.709,0,0,0-2.154,1.217l-1.2,4.689h-2.353a.485.485,0,0,0,0,.97Zm4.851-5.884a.741.741,0,0,1,.582-.063l2.15.644a.485.485,0,0,0,.278,0l2.15-.644a.717.717,0,0,1,.916.527l1.071,4.45h-8.644l1.142-4.447A.742.742,0,0,1,178.732,75.65Zm7.381,6.42a4.561,4.561,0,1,1-9.122,0,4.617,4.617,0,0,1,.032-.536h9.057A4.62,4.62,0,0,1,186.113,82.07Z" transform="translate(-155.8 -69.643)" fill="#0e5f02"/>
    <path id="Path_30028" data-name="Path 30028" d="M290.884,413.58h-3.959a.485.485,0,0,0,0,.97h3.959a.485.485,0,0,0,0-.97Z" transform="translate(-261.537 -386.724)" fill="#0e5f02"/>
    <path id="Path_30029" data-name="Path 30029" d="M238.218,413.58h-1.293a.485.485,0,0,0,0,.97h1.293a.485.485,0,1,0,0-.97Z" transform="translate(-214.769 -386.724)" fill="#0e5f02"/>
  </g>
</svg>
