<svg id="status-success-svgrepo-com" xmlns="http://www.w3.org/2000/svg" width="87.5" height="87.5" viewBox="0 0 87.5 87.5">
  <path id="Path_30030" data-name="Path 30030" d="M43.75,87.5A43.75,43.75,0,1,1,87.5,43.75,43.75,43.75,0,0,1,43.75,87.5Zm0-80.769A37.019,37.019,0,1,0,80.769,43.75,37.019,37.019,0,0,0,43.75,6.731Z" transform="translate(0 0)" fill="#0e5f02"/>
  <path id="Path_30031" data-name="Path 30031" d="M30.569,46.533a3.365,3.365,0,0,1-2.373-1.01L12.715,30.06a3.365,3.365,0,0,1,4.762-4.728L32.941,40.8a3.365,3.365,0,0,1-2.373,5.738Z" transform="translate(8.133 16.736)" fill="#0e5f02"/>
  <path id="Path_30032" data-name="Path 30032" d="M24.367,50.7a3.365,3.365,0,0,1-2.373-5.755L47.554,19.4a3.367,3.367,0,1,1,4.762,4.762L26.739,49.689A3.365,3.365,0,0,1,24.367,50.7Z" transform="translate(14.335 12.571)" fill="#0e5f02"/>
</svg>
