<svg xmlns="http://www.w3.org/2000/svg" width="60" height="60" viewBox="0 0 60 60">
  <g id="Group_57496" data-name="Group 57496" transform="translate(-28 -338)">
    <circle id="christopher-campbell-rDEOVtE7vOs-unsplash" cx="30" cy="30" r="30" transform="translate(28 338)" fill="#e3ffe9"/>
    <g id="deliver" transform="translate(43 353)">
      <g id="Group_56061" data-name="Group 56061" transform="translate(0 3)">
        <path id="Path_40240" data-name="Path 40240" d="M22.062,26.816a4.449,4.449,0,0,1-4.387-3.76H11.281a4.355,4.355,0,0,1-4.387,3.76,4.449,4.449,0,0,1-4.387-3.76H0V3H20.056V8.014h4.262l5.766,5.766v9.276h-3.76A4.322,4.322,0,0,1,22.062,26.816Zm-1.88-4.387a1.88,1.88,0,1,0,1.88-1.88A1.928,1.928,0,0,0,20.181,22.429ZM7.02,20.549a1.88,1.88,0,0,0,0,3.76,1.88,1.88,0,1,0,0-3.76Zm18.928,0h1.63V14.783L23.44,10.521H20.181v7.9a5.03,5.03,0,0,1,1.88-.376A4.151,4.151,0,0,1,25.947,20.549Zm-15.042,0h6.644V5.507H2.507V20.549h.376a4.466,4.466,0,0,1,4.011-2.507A4.33,4.33,0,0,1,10.905,20.549Z" transform="translate(0 -3)" fill="green" stroke="#e3ffe9" stroke-width="0.8"/>
      </g>
    </g>
  </g>
</svg>
