<svg xmlns="http://www.w3.org/2000/svg" width="17" height="17" viewBox="0 0 17 17">
  <g id="percentage-svgrepo-com" transform="translate(-6.25 -6.25)">
    <path id="Path_30022" data-name="Path 30022" d="M7.408,23.161a1.1,1.1,0,0,1-.783-.325,1.109,1.109,0,0,1,0-1.567L21.26,6.634A1.109,1.109,0,1,1,22.827,8.2L8.192,22.836a1.1,1.1,0,0,1-.783.325Z" transform="translate(0.024 0.015)" fill="#fff"/>
    <path id="Path_30023" data-name="Path 30023" d="M9.576,12.9a3.326,3.326,0,1,1,2.352-.974A3.326,3.326,0,0,1,9.576,12.9Zm0-4.435a1.109,1.109,0,1,0,1.109,1.109A1.123,1.123,0,0,0,9.576,8.467Z" fill="#fff"/>
    <path id="Path_30024" data-name="Path 30024" d="M16.576,19.9a3.326,3.326,0,1,1,2.352-.974A3.326,3.326,0,0,1,16.576,19.9Zm0-4.435a1.109,1.109,0,1,0,1.109,1.109,1.123,1.123,0,0,0-1.109-1.109Z" transform="translate(3.348 3.348)" fill="#fff"/>
  </g>
</svg>
